<svg width="21" height="21" viewBox="0 0 21 21" fill="none" xmlns="http://www.w3.org/2000/svg">
<path fill-rule="evenodd" clip-rule="evenodd" d="M12.897 0.841756C13.0959 0.841756 13.2867 0.920774 13.4273 1.06143C13.568 1.20208 13.647 1.39284 13.647 1.59176C13.647 1.79067 13.568 1.98143 13.4273 2.12209C13.2867 2.26274 13.0959 2.34176 12.897 2.34176H5.629C3.121 2.34176 1.499 4.06576 1.499 6.73576V14.8178C1.499 17.5228 3.082 19.2028 5.629 19.2028H14.233C16.741 19.2028 18.362 17.4828 18.362 14.8178V7.77976C18.362 7.58084 18.441 7.39008 18.5817 7.24943C18.7223 7.10877 18.9131 7.02976 19.112 7.02976C19.3109 7.02976 19.5017 7.10877 19.6423 7.24943C19.783 7.39008 19.862 7.58084 19.862 7.77976V14.8198C19.862 18.3398 17.6 20.7038 14.232 20.7038H5.63C2.263 20.7038 0 18.3388 0 14.8188V6.73576C0 3.21076 2.263 0.841756 5.63 0.841756H12.898H12.897ZM15.012 7.67176C15.1692 7.79351 15.2717 7.97273 15.2968 8.17001C15.322 8.36729 15.2677 8.56647 15.146 8.72376L12.216 12.5038C12.1557 12.582 12.0804 12.6475 11.9946 12.6964C11.9088 12.7453 11.8141 12.7767 11.716 12.7888C11.6177 12.8016 11.5179 12.7945 11.4224 12.7681C11.3269 12.7416 11.2377 12.6963 11.16 12.6348L8.342 10.4198L5.812 13.7088C5.6908 13.8666 5.51187 13.9698 5.31458 13.9956C5.11729 14.0215 4.9178 13.968 4.76 13.8468C4.6022 13.7256 4.499 13.5466 4.47312 13.3493C4.44724 13.152 4.5008 12.9526 4.622 12.7948L7.615 8.90476C7.67548 8.82619 7.75094 8.76039 7.83702 8.71117C7.92309 8.66195 8.01807 8.63029 8.11646 8.61801C8.21485 8.60574 8.3147 8.61309 8.41022 8.63965C8.50575 8.66621 8.59507 8.71145 8.673 8.77276L11.493 10.9878L13.96 7.80476C14.02 7.72645 14.0948 7.66082 14.1803 7.61164C14.2658 7.56247 14.3602 7.53073 14.458 7.51827C14.5559 7.50581 14.6552 7.51287 14.7503 7.53904C14.8454 7.56522 14.9343 7.60998 15.012 7.67076V7.67176ZM17.967 -0.000244141C18.6755 0.000285576 19.3548 0.281969 19.8558 0.782952C20.3568 1.28393 20.6385 1.96326 20.639 2.67176C20.6385 3.38034 20.3568 4.05977 19.8559 4.56091C19.3549 5.06206 18.6756 5.34396 17.967 5.34476C17.2585 5.3437 16.5793 5.06171 16.0784 4.56062C15.5775 4.05954 15.2958 3.38026 15.295 2.67176C15.2958 1.96334 15.5776 1.28417 16.0785 0.783244C16.5794 0.282318 17.2586 0.000549899 17.967 -0.000244141V-0.000244141ZM17.967 1.49976C17.662 1.50867 17.3724 1.6361 17.1598 1.85502C16.9472 2.07393 16.8282 2.36709 16.8282 2.67226C16.8282 2.97742 16.9472 3.27058 17.1598 3.48949C17.3724 3.70841 17.662 3.83585 17.967 3.84476C18.272 3.83585 18.5616 3.70841 18.7742 3.48949C18.9868 3.27058 19.1058 2.97742 19.1058 2.67226C19.1058 2.36709 18.9868 2.07393 18.7742 1.85502C18.5616 1.6361 18.272 1.50867 17.967 1.49976Z" fill="#A5B3CD"/>
</svg>
