<svg width="20" height="22" viewBox="0 0 20 22" fill="none" xmlns="http://www.w3.org/2000/svg">
<path fill-rule="evenodd" clip-rule="evenodd" d="M13.793 0.0944824C13.9919 0.0944824 14.1827 0.1735 14.3233 0.314152C14.464 0.454805 14.543 0.64557 14.543 0.844482L14.544 1.69248C16.004 1.79248 17.217 2.29248 18.075 3.15248C19.012 4.09348 19.505 5.44648 19.5 7.06948V16.1925C19.5 19.5245 17.384 21.5945 13.979 21.5945H5.521C2.116 21.5945 0 19.4955 0 16.1165V7.06748C0 3.92448 1.887 1.90748 4.965 1.69248V0.844482C4.965 0.64557 5.04402 0.454805 5.18467 0.314152C5.32532 0.1735 5.51609 0.0944824 5.715 0.0944824C5.91391 0.0944824 6.10468 0.1735 6.24533 0.314152C6.38598 0.454805 6.465 0.64557 6.465 0.844482V1.67348H13.043V0.844482C13.043 0.64557 13.122 0.454805 13.2627 0.314152C13.4033 0.1735 13.5941 0.0944824 13.793 0.0944824V0.0944824ZM18 8.99848H1.5V16.1165C1.5 18.6825 2.928 20.0945 5.521 20.0945H13.979C16.572 20.0945 18 18.7085 18 16.1925V8.99848ZM14.201 15.2905C14.3999 15.2905 14.5907 15.3695 14.7313 15.5102C14.872 15.6508 14.951 15.8416 14.951 16.0405C14.951 16.2394 14.872 16.4302 14.7313 16.5708C14.5907 16.7115 14.3999 16.7905 14.201 16.7905C14.0017 16.7905 13.8105 16.7116 13.6693 16.5711C13.528 16.4305 13.4481 16.2398 13.447 16.0405C13.447 15.6265 13.778 15.2905 14.192 15.2905H14.202H14.201ZM9.764 15.2905C9.96291 15.2905 10.1537 15.3695 10.2943 15.5102C10.435 15.6508 10.514 15.8416 10.514 16.0405C10.514 16.2394 10.435 16.4302 10.2943 16.5708C10.1537 16.7115 9.96291 16.7905 9.764 16.7905C9.56472 16.7905 9.37354 16.7116 9.23225 16.5711C9.09096 16.4305 9.01106 16.2398 9.01 16.0405C9.01 15.6265 9.34 15.2905 9.755 15.2905H9.764V15.2905ZM5.317 15.2905C5.51591 15.2905 5.70668 15.3695 5.84733 15.5102C5.98798 15.6508 6.067 15.8416 6.067 16.0405C6.067 16.2394 5.98798 16.4302 5.84733 16.5708C5.70668 16.7115 5.51591 16.7905 5.317 16.7905C5.11762 16.7905 4.92634 16.7116 4.78489 16.5711C4.64345 16.4306 4.56332 16.2399 4.562 16.0405C4.562 15.6265 4.894 15.2905 5.308 15.2905H5.317V15.2905ZM14.2 11.4045C14.3989 11.4045 14.5897 11.4835 14.7303 11.6242C14.871 11.7648 14.95 11.9556 14.95 12.1545C14.95 12.3534 14.871 12.5442 14.7303 12.6848C14.5897 12.8255 14.3989 12.9045 14.2 12.9045C14.0007 12.9045 13.8095 12.8256 13.6683 12.6851C13.527 12.5445 13.4471 12.3538 13.446 12.1545C13.446 11.7405 13.777 11.4045 14.191 11.4045H14.201H14.2ZM9.763 11.4045C9.96191 11.4045 10.1527 11.4835 10.2933 11.6242C10.434 11.7648 10.513 11.9556 10.513 12.1545C10.513 12.3534 10.434 12.5442 10.2933 12.6848C10.1527 12.8255 9.96191 12.9045 9.763 12.9045C9.56372 12.9045 9.37254 12.8256 9.23125 12.6851C9.08996 12.5445 9.01006 12.3538 9.009 12.1545C9.009 11.7405 9.339 11.4045 9.754 11.4045H9.763ZM5.316 11.4045C5.51491 11.4045 5.70568 11.4835 5.84633 11.6242C5.98698 11.7648 6.066 11.9556 6.066 12.1545C6.066 12.3534 5.98698 12.5442 5.84633 12.6848C5.70568 12.8255 5.51491 12.9045 5.316 12.9045C5.11662 12.9045 4.92534 12.8256 4.78389 12.6851C4.64245 12.5446 4.56232 12.3539 4.561 12.1545C4.561 11.7405 4.893 11.4045 5.307 11.4045H5.316V11.4045ZM13.042 3.17348H6.465V4.13548C6.465 4.33439 6.38598 4.52516 6.24533 4.66581C6.10468 4.80646 5.91391 4.88548 5.715 4.88548C5.51609 4.88548 5.32532 4.80646 5.18467 4.66581C5.04402 4.52516 4.965 4.33439 4.965 4.13548V3.19548C2.725 3.38448 1.5 4.74348 1.5 7.06848V7.49948H18V7.06948C18.004 5.83348 17.672 4.87348 17.013 4.21348C16.435 3.63348 15.589 3.28648 14.544 3.19748V4.13648C14.544 4.33539 14.465 4.52616 14.3243 4.66681C14.1837 4.80746 13.9929 4.88648 13.794 4.88648C13.5951 4.88648 13.4043 4.80746 13.2637 4.66681C13.123 4.52616 13.044 4.33539 13.044 4.13648L13.043 3.17448L13.042 3.17348Z" fill="#A5B3CD"/>
</svg>
