<svg width="22" height="22" viewBox="0 0 22 22" fill="none" xmlns="http://www.w3.org/2000/svg">
<path d="M11 21.7498C5.07 21.7498 0.25 16.9298 0.25 10.9998C0.25 8.63976 1 6.39976 2.42 4.51976C2.67 4.18976 3.14 4.12976 3.47 4.37976C3.8 4.62976 3.87 5.09976 3.62 5.42976C2.40196 7.03072 1.74481 8.98812 1.75 10.9998C1.75 16.0998 5.9 20.2498 11 20.2498C16.1 20.2498 20.25 16.0998 20.25 10.9998C20.25 5.89976 16.1 1.74976 11 1.74976C10.59 1.74976 10.25 1.40976 10.25 0.999756C10.25 0.589756 10.59 0.249756 11 0.249756C16.93 0.249756 21.75 5.06976 21.75 10.9998C21.75 16.9298 16.93 21.7498 11 21.7498Z" fill="#A5B3CD"/>
<path d="M11 18.7498C6.73 18.7498 3.25 15.2698 3.25 10.9998C3.25 10.5898 3.59 10.2498 4 10.2498C4.41 10.2498 4.75 10.5898 4.75 10.9998C4.75 14.4498 7.55 17.2498 11 17.2498C14.45 17.2498 17.25 14.4498 17.25 10.9998C17.25 7.54976 14.45 4.74976 11 4.74976C10.59 4.74976 10.25 4.40976 10.25 3.99976C10.25 3.58976 10.59 3.24976 11 3.24976C15.27 3.24976 18.75 6.72976 18.75 10.9998C18.75 15.2698 15.27 18.7498 11 18.7498Z" fill="#A5B3CD"/>
<path d="M11 15.7498C10.59 15.7498 10.25 15.4098 10.25 14.9998C10.25 14.5898 10.59 14.2498 11 14.2498C12.79 14.2498 14.25 12.7898 14.25 10.9998C14.25 9.20976 12.79 7.74976 11 7.74976C10.59 7.74976 10.25 7.40976 10.25 6.99976C10.25 6.58976 10.59 6.24976 11 6.24976C13.62 6.24976 15.75 8.37976 15.75 10.9998C15.75 13.6198 13.62 15.7498 11 15.7498Z" fill="#A5B3CD"/>
</svg>
