<svg width="24" height="25" viewBox="0 0 24 25" fill="none" xmlns="http://www.w3.org/2000/svg">
<path d="M15.24 22.3647H15.11C10.67 22.3647 8.52997 20.6147 8.15997 16.6947C8.11997 16.2847 8.41997 15.9147 8.83997 15.8747C9.23997 15.8347 9.61997 16.1447 9.65997 16.5547C9.94997 19.6947 11.43 20.8647 15.12 20.8647H15.25C19.32 20.8647 20.76 19.4247 20.76 15.3547V8.83471C20.76 4.76471 19.32 3.32471 15.25 3.32471H15.12C11.41 3.32471 9.92997 4.51471 9.65997 7.71471C9.60997 8.12471 9.25997 8.43471 8.83997 8.39471C8.74141 8.38701 8.64534 8.35992 8.55727 8.31501C8.46921 8.2701 8.39087 8.20824 8.32677 8.13299C8.26266 8.05773 8.21404 7.97056 8.1837 7.87647C8.15336 7.78239 8.1419 7.68324 8.14997 7.58471C8.48997 3.60471 10.64 1.82471 15.11 1.82471H15.24C20.15 1.82471 22.25 3.92471 22.25 8.83471V15.3547C22.25 20.2647 20.15 22.3647 15.24 22.3647Z" fill="#A5B3CD"/>
<path d="M15 12.8447H3.62C3.21 12.8447 2.87 12.5047 2.87 12.0947C2.87 11.6847 3.21 11.3447 3.62 11.3447H15C15.41 11.3447 15.75 11.6847 15.75 12.0947C15.75 12.5047 15.41 12.8447 15 12.8447Z" fill="#A5B3CD"/>
<path d="M5.85002 16.1947C5.66002 16.1947 5.47002 16.1247 5.32002 15.9747L1.97002 12.6247C1.83054 12.4836 1.75232 12.2931 1.75232 12.0947C1.75232 11.8963 1.83054 11.7058 1.97002 11.5647L5.32002 8.21469C5.61002 7.92469 6.09002 7.92469 6.38002 8.21469C6.67002 8.50469 6.67002 8.98469 6.38002 9.27469L3.56002 12.0947L6.38002 14.9147C6.67002 15.2047 6.67002 15.6847 6.38002 15.9747C6.24002 16.1247 6.04002 16.1947 5.85002 16.1947Z" fill="#A5B3CD"/>
</svg>
