<svg width="19" height="22" viewBox="0 0 19 22" fill="none" xmlns="http://www.w3.org/2000/svg">
<path fill-rule="evenodd" clip-rule="evenodd" d="M7.32401 19.2005C7.84201 19.7775 8.50701 20.0945 9.19701 20.0945H9.19801C9.89101 20.0945 10.559 19.7775 11.078 19.1995C11.2112 19.0516 11.3976 18.9627 11.5963 18.9523C11.795 18.9419 11.9897 19.0108 12.1375 19.144C12.2854 19.2771 12.3743 19.4635 12.3847 19.6622C12.3951 19.8609 12.3262 20.0556 12.193 20.2035C11.385 21.1005 10.323 21.5945 9.19801 21.5945H9.19601C8.07601 21.5935 7.01401 21.0995 6.20901 20.2025C6.14322 20.1293 6.09249 20.0438 6.05973 19.951C6.02696 19.8582 6.01279 19.7598 6.01804 19.6615C6.02329 19.5632 6.04784 19.4669 6.0903 19.3781C6.13277 19.2893 6.1923 19.2098 6.26551 19.144C6.33873 19.0782 6.42418 19.0275 6.517 18.9947C6.60981 18.9619 6.70817 18.9478 6.80646 18.953C6.90476 18.9583 7.00105 18.9828 7.08985 19.0253C7.17865 19.0677 7.25822 19.1273 7.32401 19.2005V19.2005ZM9.24701 0.0944824C13.692 0.0944824 16.678 3.55648 16.678 6.78948C16.678 8.45248 17.101 9.15748 17.55 9.90548C17.994 10.6435 18.497 11.4815 18.497 13.0655C18.148 17.1125 13.923 17.4425 9.24701 17.4425C4.57101 17.4425 0.345013 17.1125 1.33547e-05 13.1295C-0.00298665 11.4815 0.500013 10.6435 0.944013 9.90548L1.10101 9.64148C1.48701 8.97848 1.81601 8.25648 1.81601 6.78948C1.81601 3.55648 4.80201 0.0944824 9.24701 0.0944824ZM9.24701 1.59448C5.75201 1.59448 3.31701 4.33248 3.31701 6.78948C3.31701 8.86848 2.73901 9.82948 2.22901 10.6775C1.82001 11.3585 1.49701 11.8965 1.49701 13.0655C1.66401 14.9515 2.90901 15.9425 9.24701 15.9425C15.55 15.9425 16.834 14.9075 17 13.0005C16.997 11.8965 16.674 11.3585 16.265 10.6775C15.755 9.82948 15.178 8.86848 15.178 6.78948C15.178 4.33248 12.742 1.59448 9.24801 1.59448H9.24701Z" fill="#A5B3CD"/>
</svg>
