<svg width="128" height="118" viewBox="0 0 128 118" fill="none" xmlns="http://www.w3.org/2000/svg">
<path d="M5.948 2.6C6.724 2.6 7.368 2.86 7.88 3.38C8.4 3.892 8.66 4.532 8.66 5.3C8.66 6.06 8.4 6.7 7.88 7.22C7.368 7.74 6.724 8 5.948 8H4.016V11H2.9V2.6H5.948ZM5.948 6.956C6.412 6.956 6.796 6.8 7.1 6.488C7.404 6.168 7.556 5.772 7.556 5.3C7.556 4.82 7.404 4.424 7.1 4.112C6.796 3.8 6.412 3.644 5.948 3.644H4.016V6.956H5.948ZM14.9581 11L13.0741 7.784H11.0941V11H9.97813V2.6H13.3381C14.0581 2.6 14.6741 2.856 15.1861 3.368C15.6981 3.872 15.9541 4.484 15.9541 5.204C15.9541 5.748 15.7901 6.244 15.4621 6.692C15.1421 7.14 14.7261 7.456 14.2141 7.64L16.1941 11H14.9581ZM11.0941 3.644V6.776H13.3381C13.7541 6.776 14.1061 6.624 14.3941 6.32C14.6901 6.008 14.8381 5.636 14.8381 5.204C14.8381 4.772 14.6901 4.404 14.3941 4.1C14.1061 3.796 13.7541 3.644 13.3381 3.644H11.0941ZM18.4301 9.944H22.3301V11H17.3141V2.6H22.2701V3.656H18.4301V6.236H21.9701V7.28H18.4301V9.944ZM28.5133 3.656H24.7933V6.38H28.3573V7.436H24.7933V11H23.6773V2.6H28.5133V3.656ZM30.9808 9.944H34.8808V11H29.8648V2.6H34.8208V3.656H30.9808V6.236H34.5208V7.28H30.9808V9.944ZM41.2081 11L39.3241 7.784H37.3441V11H36.2281V2.6H39.5881C40.3081 2.6 40.9241 2.856 41.4361 3.368C41.9481 3.872 42.2041 4.484 42.2041 5.204C42.2041 5.748 42.0401 6.244 41.7121 6.692C41.3921 7.14 40.9761 7.456 40.4641 7.64L42.4441 11H41.2081ZM37.3441 3.644V6.776H39.5881C40.0041 6.776 40.3561 6.624 40.6441 6.32C40.9401 6.008 41.0881 5.636 41.0881 5.204C41.0881 4.772 40.9401 4.404 40.6441 4.1C40.3561 3.796 40.0041 3.644 39.5881 3.644H37.3441ZM44.6801 9.944H48.5801V11H43.5641V2.6H48.5201V3.656H44.6801V6.236H48.2201V7.28H44.6801V9.944ZM55.1473 2.6H56.2633V11H55.3633L51.0433 4.724V11H49.9273V2.6H50.8273L55.1473 8.864V2.6ZM62.0082 11.156C60.7362 11.156 59.6842 10.736 58.8522 9.896C58.0282 9.056 57.6162 8.024 57.6162 6.8C57.6162 5.576 58.0282 4.544 58.8522 3.704C59.6842 2.864 60.7362 2.444 62.0082 2.444C62.7762 2.444 63.4802 2.628 64.1202 2.996C64.7682 3.364 65.2722 3.86 65.6322 4.484L64.6602 5.048C64.4202 4.584 64.0602 4.216 63.5802 3.944C63.1082 3.664 62.5842 3.524 62.0082 3.524C61.0402 3.524 60.2482 3.836 59.6322 4.46C59.0242 5.084 58.7202 5.864 58.7202 6.8C58.7202 7.728 59.0242 8.504 59.6322 9.128C60.2482 9.752 61.0402 10.064 62.0082 10.064C62.5842 10.064 63.1082 9.928 63.5802 9.656C64.0602 9.376 64.4202 9.008 64.6602 8.552L65.6322 9.104C65.2802 9.728 64.7802 10.228 64.1322 10.604C63.4842 10.972 62.7762 11.156 62.0082 11.156ZM68.0121 9.944H71.9121V11H66.8961V2.6H71.8521V3.656H68.0121V6.236H71.5521V7.28H68.0121V9.944ZM75.9714 11.156C75.1874 11.156 74.5154 10.972 73.9554 10.604C73.4034 10.236 73.0154 9.732 72.7914 9.092L73.7514 8.54C74.0794 9.556 74.8274 10.064 75.9954 10.064C76.5714 10.064 77.0114 9.948 77.3154 9.716C77.6194 9.476 77.7714 9.16 77.7714 8.768C77.7714 8.368 77.6194 8.068 77.3154 7.868C77.0114 7.668 76.5034 7.456 75.7914 7.232C75.4394 7.12 75.1714 7.032 74.9874 6.968C74.8034 6.896 74.5714 6.792 74.2914 6.656C74.0194 6.512 73.8154 6.368 73.6794 6.224C73.5434 6.072 73.4194 5.876 73.3074 5.636C73.2034 5.396 73.1514 5.124 73.1514 4.82C73.1514 4.092 73.4074 3.516 73.9194 3.092C74.4314 2.66 75.0554 2.444 75.7914 2.444C76.4554 2.444 77.0314 2.612 77.5194 2.948C78.0154 3.284 78.3874 3.728 78.6354 4.28L77.6994 4.82C77.3394 3.956 76.7034 3.524 75.7914 3.524C75.3354 3.524 74.9674 3.636 74.6874 3.86C74.4074 4.084 74.2674 4.388 74.2674 4.772C74.2674 5.14 74.3994 5.42 74.6634 5.612C74.9274 5.804 75.3834 6.004 76.0314 6.212C76.2634 6.284 76.4274 6.336 76.5234 6.368C76.6194 6.4 76.7674 6.456 76.9674 6.536C77.1754 6.616 77.3274 6.68 77.4234 6.728C77.5194 6.776 77.6474 6.844 77.8074 6.932C77.9754 7.02 78.0994 7.104 78.1794 7.184C78.2594 7.264 78.3514 7.364 78.4554 7.484C78.5674 7.596 78.6474 7.712 78.6954 7.832C78.7434 7.952 78.7834 8.092 78.8154 8.252C78.8554 8.404 78.8754 8.568 78.8754 8.744C78.8754 9.48 78.6074 10.068 78.0714 10.508C77.5354 10.94 76.8354 11.156 75.9714 11.156Z" fill="#A5B3CD"/>
<path d="M53.14 42.4947V55.0947H51.484V45.2487L47.362 52.1067H47.146L43.024 45.2667V55.0947H41.35V42.4947H43.24L47.254 49.1547L51.25 42.4947H53.14ZM61.9544 46.0947H63.6284L59.9564 55.6527C59.5724 56.6727 59.0324 57.4467 58.3364 57.9747C57.6524 58.5147 56.8604 58.7547 55.9604 58.6947V57.2367C57.0644 57.3207 57.8744 56.7087 58.3904 55.4007L58.5524 55.0587L54.6284 46.0947H56.3024L59.3624 53.1507L61.9544 46.0947ZM76.852 44.0787H71.272V48.1647H76.618V49.7487H71.272V55.0947H69.598V42.4947H76.852V44.0787ZM80.2833 47.6067C80.7993 46.4907 81.7353 45.9327 83.0913 45.9327V47.5707C82.3233 47.5347 81.6633 47.7387 81.1113 48.1827C80.5593 48.6267 80.2833 49.3407 80.2833 50.3247V55.0947H78.7173V46.0947H80.2833V47.6067ZM85.4155 44.4567C85.1155 44.4567 84.8635 44.3547 84.6595 44.1507C84.4555 43.9467 84.3535 43.7007 84.3535 43.4127C84.3535 43.1247 84.4555 42.8787 84.6595 42.6747C84.8635 42.4587 85.1155 42.3507 85.4155 42.3507C85.7035 42.3507 85.9495 42.4587 86.1535 42.6747C86.3575 42.8787 86.4595 43.1247 86.4595 43.4127C86.4595 43.7007 86.3575 43.9467 86.1535 44.1507C85.9495 44.3547 85.7035 44.4567 85.4155 44.4567ZM84.6235 55.0947V46.0947H86.1895V55.0947H84.6235ZM89.6766 51.3147C89.8326 52.1187 90.1986 52.7427 90.7746 53.1867C91.3626 53.6307 92.0826 53.8527 92.9346 53.8527C94.1226 53.8527 94.9866 53.4147 95.5266 52.5387L96.8586 53.2947C95.9826 54.6507 94.6626 55.3287 92.8986 55.3287C91.4706 55.3287 90.3066 54.8847 89.4066 53.9967C88.5186 53.0967 88.0746 51.9627 88.0746 50.5947C88.0746 49.2387 88.5126 48.1107 89.3886 47.2107C90.2646 46.3107 91.3986 45.8607 92.7906 45.8607C94.1106 45.8607 95.1846 46.3287 96.0126 47.2647C96.8526 48.1887 97.2726 49.3047 97.2726 50.6127C97.2726 50.8407 97.2546 51.0747 97.2186 51.3147H89.6766ZM92.7906 47.3367C91.9506 47.3367 91.2546 47.5767 90.7026 48.0567C90.1506 48.5247 89.8086 49.1547 89.6766 49.9467H95.6886C95.5566 49.0947 95.2206 48.4467 94.6806 48.0027C94.1406 47.5587 93.5106 47.3367 92.7906 47.3367ZM103.555 45.8607C104.611 45.8607 105.457 46.1967 106.093 46.8687C106.729 47.5287 107.047 48.4287 107.047 49.5687V55.0947H105.481V49.6587C105.481 48.9267 105.283 48.3627 104.887 47.9667C104.491 47.5587 103.945 47.3547 103.249 47.3547C102.469 47.3547 101.839 47.6007 101.359 48.0927C100.879 48.5727 100.639 49.3167 100.639 50.3247V55.0947H99.0728V46.0947H100.639V47.3907C101.275 46.3707 102.247 45.8607 103.555 45.8607ZM116.685 42.4947H118.251V55.0947H116.685V53.5467C115.905 54.7347 114.771 55.3287 113.283 55.3287C112.023 55.3287 110.949 54.8727 110.061 53.9607C109.173 53.0367 108.729 51.9147 108.729 50.5947C108.729 49.2747 109.173 48.1587 110.061 47.2467C110.949 46.3227 112.023 45.8607 113.283 45.8607C114.771 45.8607 115.905 46.4547 116.685 47.6427V42.4947ZM113.481 53.8167C114.393 53.8167 115.155 53.5107 115.767 52.8987C116.379 52.2747 116.685 51.5067 116.685 50.5947C116.685 49.6827 116.379 48.9207 115.767 48.3087C115.155 47.6847 114.393 47.3727 113.481 47.3727C112.581 47.3727 111.825 47.6847 111.213 48.3087C110.601 48.9207 110.295 49.6827 110.295 50.5947C110.295 51.5067 110.601 52.2747 111.213 52.8987C111.825 53.5107 112.581 53.8167 113.481 53.8167ZM121.956 48.5247C121.956 48.8727 122.13 49.1547 122.478 49.3707C122.826 49.5747 123.246 49.7427 123.738 49.8747C124.23 49.9947 124.722 50.1387 125.214 50.3067C125.706 50.4627 126.126 50.7387 126.474 51.1347C126.822 51.5187 126.996 52.0167 126.996 52.6287C126.996 53.4447 126.678 54.0987 126.042 54.5907C125.418 55.0827 124.614 55.3287 123.63 55.3287C122.754 55.3287 122.004 55.1367 121.38 54.7527C120.756 54.3687 120.312 53.8587 120.048 53.2227L121.398 52.4487C121.542 52.8807 121.812 53.2227 122.208 53.4747C122.604 53.7267 123.078 53.8527 123.63 53.8527C124.146 53.8527 124.572 53.7567 124.908 53.5647C125.244 53.3607 125.412 53.0487 125.412 52.6287C125.412 52.2807 125.238 52.0047 124.89 51.8007C124.542 51.5847 124.122 51.4167 123.63 51.2967C123.138 51.1647 122.646 51.0147 122.154 50.8467C121.662 50.6787 121.242 50.4027 120.894 50.0187C120.546 49.6347 120.372 49.1427 120.372 48.5427C120.372 47.7627 120.672 47.1207 121.272 46.6167C121.884 46.1127 122.646 45.8607 123.558 45.8607C124.29 45.8607 124.938 46.0287 125.502 46.3647C126.078 46.6887 126.51 47.1447 126.798 47.7327L125.484 48.4707C125.16 47.7027 124.518 47.3187 123.558 47.3187C123.114 47.3187 122.736 47.4267 122.424 47.6427C122.112 47.8467 121.956 48.1407 121.956 48.5247Z" fill="#A5B3CD"/>
<path d="M9.15995 47.87C9.05995 47.86 8.93995 47.86 8.82995 47.87C7.68216 47.831 6.5946 47.3468 5.79758 46.52C5.00057 45.6931 4.55669 44.5885 4.55995 43.44C4.55995 40.99 6.53995 39 8.99995 39C10.1762 38.9788 11.3127 39.4257 12.1594 40.2424C13.0061 41.0591 13.4937 42.1788 13.515 43.355C13.5362 44.5312 13.0893 45.6677 12.2725 46.5145C11.4558 47.3612 10.3362 47.8488 9.15995 47.87Z" stroke="#A5B3CD" stroke-width="1.5" stroke-linecap="round" stroke-linejoin="round"/>
<path opacity="0.4" d="M16.41 41C18.35 41 19.91 42.57 19.91 44.5C19.91 46.39 18.41 47.93 16.54 48C16.4537 47.99 16.3664 47.99 16.28 48" stroke="#A5B3CD" stroke-width="1.5" stroke-linecap="round" stroke-linejoin="round"/>
<path d="M4.15997 51.56C1.73997 53.18 1.73997 55.82 4.15997 57.43C6.90997 59.27 11.42 59.27 14.17 57.43C16.59 55.81 16.59 53.17 14.17 51.56C11.43 49.73 6.91997 49.73 4.15997 51.56V51.56Z" stroke="#A5B3CD" stroke-width="1.5" stroke-linecap="round" stroke-linejoin="round"/>
<path opacity="0.4" d="M18.34 57C19.06 56.85 19.74 56.56 20.3 56.13C21.86 54.96 21.86 53.03 20.3 51.86C19.75 51.44 19.08 51.16 18.37 51" stroke="#A5B3CD" stroke-width="1.5" stroke-linecap="round" stroke-linejoin="round"/>
<path d="M12 108.845C9.93 108.845 8.25 107.165 8.25 105.095C8.25 103.025 9.93 101.345 12 101.345C14.07 101.345 15.75 103.025 15.75 105.095C15.75 107.165 14.07 108.845 12 108.845ZM12 102.845C10.76 102.845 9.75 103.855 9.75 105.095C9.75 106.335 10.76 107.345 12 107.345C13.24 107.345 14.25 106.335 14.25 105.095C14.25 103.855 13.24 102.845 12 102.845Z" fill="#A5B3CD"/>
<path d="M15.21 115.285C15 115.285 14.79 115.255 14.58 115.205C13.96 115.035 13.44 114.645 13.11 114.095L12.99 113.895C12.4 112.875 11.59 112.875 11 113.895L10.89 114.085C10.56 114.645 10.04 115.045 9.42 115.205C8.79 115.375 8.14 115.285 7.59 114.955L5.87 113.965C5.56778 113.792 5.30266 113.561 5.08981 113.285C4.87695 113.009 4.72055 112.694 4.62953 112.358C4.53851 112.022 4.51466 111.671 4.55936 111.325C4.60405 110.98 4.71641 110.647 4.89 110.345C5.18 109.835 5.26 109.375 5.09 109.085C4.92 108.795 4.49 108.625 3.9 108.625C2.44 108.625 1.25 107.435 1.25 105.975V104.215C1.25 102.755 2.44 101.565 3.9 101.565C4.49 101.565 4.92 101.395 5.09 101.105C5.26 100.815 5.19 100.355 4.89 99.8447C4.54 99.2347 4.45 98.5147 4.63 97.8347C4.81 97.1447 5.25 96.5747 5.87 96.2247L7.6 95.2347C8.73 94.5647 10.22 94.9547 10.9 96.1047L11.02 96.3047C11.61 97.3247 12.42 97.3247 13.01 96.3047L13.12 96.1147C13.8 94.9547 15.29 94.5647 16.43 95.2447L18.15 96.2347C18.4522 96.4079 18.7173 96.639 18.9302 96.9147C19.143 97.1904 19.2995 97.5054 19.3905 97.8416C19.4815 98.1778 19.5053 98.5286 19.4606 98.8741C19.4159 99.2195 19.3036 99.5528 19.13 99.8547C18.84 100.365 18.76 100.825 18.93 101.115C19.1 101.405 19.53 101.575 20.12 101.575C21.58 101.575 22.77 102.765 22.77 104.225V105.985C22.77 107.445 21.58 108.635 20.12 108.635C19.53 108.635 19.1 108.805 18.93 109.095C18.76 109.385 18.83 109.845 19.13 110.355C19.48 110.965 19.58 111.685 19.39 112.365C19.3031 112.703 19.1483 113.02 18.9352 113.297C18.722 113.574 18.4549 113.804 18.15 113.975L16.42 114.965C16.04 115.175 15.63 115.285 15.21 115.285V115.285ZM12 111.585C12.89 111.585 13.72 112.145 14.29 113.135L14.4 113.325C14.52 113.535 14.72 113.685 14.96 113.745C15.2 113.805 15.44 113.775 15.64 113.655L17.37 112.655C17.634 112.502 17.8273 112.252 17.9078 111.958C17.9883 111.664 17.9496 111.35 17.8 111.085C17.23 110.105 17.16 109.095 17.6 108.325C18.04 107.555 18.95 107.115 20.09 107.115C20.73 107.115 21.24 106.605 21.24 105.965V104.205C21.24 103.575 20.73 103.055 20.09 103.055C18.95 103.055 18.04 102.615 17.6 101.845C17.16 101.075 17.23 100.065 17.8 99.0847C17.95 98.8247 17.99 98.5147 17.91 98.2147C17.83 97.9147 17.64 97.6747 17.38 97.5147L15.65 96.5247C15.5456 96.4635 15.4302 96.4235 15.3104 96.407C15.1905 96.3905 15.0686 96.3977 14.9515 96.4284C14.8345 96.459 14.7247 96.5125 14.6283 96.5856C14.532 96.6588 14.451 96.7502 14.39 96.8547L14.28 97.0447C13.71 98.0347 12.88 98.5947 11.99 98.5947C11.1 98.5947 10.27 98.0347 9.7 97.0447L9.59 96.8447C9.46573 96.6404 9.26661 96.4926 9.03501 96.4328C8.80342 96.373 8.55764 96.406 8.35 96.5247L6.62 97.5247C6.35598 97.677 6.16272 97.9274 6.0822 98.2213C6.00169 98.5153 6.04043 98.8292 6.19 99.0947C6.76 100.075 6.83 101.085 6.39 101.855C5.95 102.625 5.04 103.065 3.9 103.065C3.26 103.065 2.75 103.575 2.75 104.215V105.975C2.75 106.605 3.26 107.125 3.9 107.125C5.04 107.125 5.95 107.565 6.39 108.335C6.83 109.105 6.76 110.115 6.19 111.095C6.04 111.355 6 111.665 6.08 111.965C6.16 112.265 6.35 112.505 6.61 112.665L8.34 113.655C8.55 113.785 8.8 113.815 9.03 113.755C9.27 113.695 9.47 113.535 9.6 113.325L9.71 113.135C10.28 112.155 11.11 111.585 12 111.585Z" fill="#A5B3CD"/>
<path d="M45.0005 111.329C43.8245 111.329 42.8165 111.053 41.9765 110.501C41.1485 109.949 40.5665 109.193 40.2305 108.233L41.6705 107.405C42.1625 108.929 43.2845 109.691 45.0365 109.691C45.9005 109.691 46.5605 109.517 47.0165 109.169C47.4725 108.809 47.7005 108.335 47.7005 107.747C47.7005 107.147 47.4725 106.697 47.0165 106.397C46.5605 106.097 45.7985 105.779 44.7305 105.443C44.2025 105.275 43.8005 105.143 43.5245 105.047C43.2485 104.939 42.9005 104.783 42.4805 104.579C42.0725 104.363 41.7665 104.147 41.5625 103.931C41.3585 103.703 41.1725 103.409 41.0045 103.049C40.8485 102.689 40.7705 102.281 40.7705 101.825C40.7705 100.733 41.1545 99.8687 41.9225 99.2327C42.6905 98.5847 43.6265 98.2607 44.7305 98.2607C45.7265 98.2607 46.5905 98.5127 47.3225 99.0167C48.0665 99.5207 48.6245 100.187 48.9965 101.015L47.5925 101.825C47.0525 100.529 46.0985 99.8807 44.7305 99.8807C44.0465 99.8807 43.4945 100.049 43.0745 100.385C42.6545 100.721 42.4445 101.177 42.4445 101.753C42.4445 102.305 42.6425 102.725 43.0385 103.013C43.4345 103.301 44.1185 103.601 45.0905 103.913C45.4385 104.021 45.6845 104.099 45.8285 104.147C45.9725 104.195 46.1945 104.279 46.4945 104.399C46.8065 104.519 47.0345 104.615 47.1785 104.687C47.3225 104.759 47.5145 104.861 47.7545 104.993C48.0065 105.125 48.1925 105.251 48.3125 105.371C48.4325 105.491 48.5705 105.641 48.7265 105.821C48.8945 105.989 49.0145 106.163 49.0865 106.343C49.1585 106.523 49.2185 106.733 49.2665 106.973C49.3265 107.201 49.3565 107.447 49.3565 107.711C49.3565 108.815 48.9545 109.697 48.1505 110.357C47.3465 111.005 46.2965 111.329 45.0005 111.329ZM52.4857 107.315C52.6417 108.119 53.0077 108.743 53.5837 109.187C54.1717 109.631 54.8917 109.853 55.7437 109.853C56.9317 109.853 57.7957 109.415 58.3357 108.539L59.6677 109.295C58.7917 110.651 57.4717 111.329 55.7077 111.329C54.2797 111.329 53.1157 110.885 52.2157 109.997C51.3277 109.097 50.8837 107.963 50.8837 106.595C50.8837 105.239 51.3217 104.111 52.1977 103.211C53.0737 102.311 54.2077 101.861 55.5997 101.861C56.9197 101.861 57.9937 102.329 58.8217 103.265C59.6617 104.189 60.0817 105.305 60.0817 106.613C60.0817 106.841 60.0637 107.075 60.0277 107.315H52.4857ZM55.5997 103.337C54.7597 103.337 54.0637 103.577 53.5117 104.057C52.9597 104.525 52.6177 105.155 52.4857 105.947H58.4977C58.3657 105.095 58.0297 104.447 57.4897 104.003C56.9497 103.559 56.3197 103.337 55.5997 103.337ZM66.5142 103.607H64.1202V108.485C64.1202 108.929 64.2042 109.247 64.3722 109.439C64.5522 109.619 64.8222 109.715 65.1822 109.727C65.5422 109.727 65.9862 109.715 66.5142 109.691V111.095C65.1462 111.275 64.1442 111.167 63.5082 110.771C62.8722 110.363 62.5542 109.601 62.5542 108.485V103.607H60.7722V102.095H62.5542V100.043L64.1202 99.5747V102.095H66.5142V103.607ZM72.7896 103.607H70.3956V108.485C70.3956 108.929 70.4796 109.247 70.6476 109.439C70.8276 109.619 71.0976 109.715 71.4576 109.727C71.8176 109.727 72.2616 109.715 72.7896 109.691V111.095C71.4216 111.275 70.4196 111.167 69.7836 110.771C69.1476 110.363 68.8296 109.601 68.8296 108.485V103.607H67.0476V102.095H68.8296V100.043L70.3956 99.5747V102.095H72.7896V103.607ZM75.4356 100.457C75.1356 100.457 74.8836 100.355 74.6796 100.151C74.4756 99.9467 74.3736 99.7007 74.3736 99.4127C74.3736 99.1247 74.4756 98.8787 74.6796 98.6747C74.8836 98.4587 75.1356 98.3507 75.4356 98.3507C75.7236 98.3507 75.9696 98.4587 76.1736 98.6747C76.3776 98.8787 76.4796 99.1247 76.4796 99.4127C76.4796 99.7007 76.3776 99.9467 76.1736 100.151C75.9696 100.355 75.7236 100.457 75.4356 100.457ZM74.6436 111.095V102.095H76.2096V111.095H74.6436ZM83.0806 101.861C84.1366 101.861 84.9826 102.197 85.6186 102.869C86.2546 103.529 86.5726 104.429 86.5726 105.569V111.095H85.0066V105.659C85.0066 104.927 84.8086 104.363 84.4126 103.967C84.0166 103.559 83.4706 103.355 82.7746 103.355C81.9946 103.355 81.3646 103.601 80.8846 104.093C80.4046 104.573 80.1646 105.317 80.1646 106.325V111.095H78.5986V102.095H80.1646V103.391C80.8006 102.371 81.7726 101.861 83.0806 101.861ZM96.2288 102.095H97.7768V110.717C97.7768 112.049 97.3268 113.081 96.4268 113.813C95.5268 114.557 94.4468 114.929 93.1868 114.929C92.1788 114.929 91.3088 114.737 90.5768 114.353C89.8448 113.981 89.2928 113.441 88.9208 112.733L90.2888 111.959C90.7808 112.967 91.7588 113.471 93.2228 113.471C94.1588 113.471 94.8908 113.225 95.4188 112.733C95.9588 112.241 96.2288 111.569 96.2288 110.717V109.439C95.4368 110.639 94.3088 111.239 92.8448 111.239C91.5608 111.239 90.4748 110.783 89.5868 109.871C88.6988 108.959 88.2548 107.849 88.2548 106.541C88.2548 105.233 88.6988 104.129 89.5868 103.229C90.4748 102.317 91.5608 101.861 92.8448 101.861C94.3208 101.861 95.4488 102.455 96.2288 103.643V102.095ZM90.7388 108.827C91.3508 109.439 92.1128 109.745 93.0248 109.745C93.9368 109.745 94.6988 109.439 95.3108 108.827C95.9228 108.215 96.2288 107.453 96.2288 106.541C96.2288 105.641 95.9228 104.885 95.3108 104.273C94.6988 103.661 93.9368 103.355 93.0248 103.355C92.1128 103.355 91.3508 103.661 90.7388 104.273C90.1268 104.885 89.8208 105.641 89.8208 106.541C89.8208 107.453 90.1268 108.215 90.7388 108.827Z" fill="#A5B3CD"/>
</svg>
