<svg width="22" height="22" viewBox="0 0 22 22" fill="none" xmlns="http://www.w3.org/2000/svg">
<path d="M11 14.8447C8.93 14.8447 7.25 13.1647 7.25 11.0947C7.25 9.02473 8.93 7.34473 11 7.34473C13.07 7.34473 14.75 9.02473 14.75 11.0947C14.75 13.1647 13.07 14.8447 11 14.8447ZM11 8.84473C9.76 8.84473 8.75 9.85473 8.75 11.0947C8.75 12.3347 9.76 13.3447 11 13.3447C12.24 13.3447 13.25 12.3347 13.25 11.0947C13.25 9.85473 12.24 8.84473 11 8.84473Z" fill="#A5B3CD"/>
<path d="M14.21 21.2847C14 21.2847 13.79 21.2547 13.58 21.2047C12.96 21.0347 12.44 20.6447 12.11 20.0947L11.99 19.8947C11.4 18.8747 10.59 18.8747 10 19.8947L9.89 20.0847C9.56 20.6447 9.04 21.0447 8.42 21.2047C7.79 21.3747 7.14 21.2847 6.59 20.9547L4.87 19.9647C4.56778 19.7916 4.30266 19.5605 4.08981 19.2848C3.87695 19.0091 3.72055 18.6941 3.62953 18.3579C3.53851 18.0217 3.51466 17.6708 3.55936 17.3254C3.60405 16.98 3.71641 16.6467 3.89 16.3447C4.18 15.8347 4.26 15.3747 4.09 15.0847C3.92 14.7947 3.49 14.6247 2.9 14.6247C1.44 14.6247 0.25 13.4347 0.25 11.9747V10.2147C0.25 8.75474 1.44 7.56474 2.9 7.56474C3.49 7.56474 3.92 7.39474 4.09 7.10474C4.26 6.81474 4.19 6.35474 3.89 5.84474C3.54 5.23474 3.45 4.51474 3.63 3.83474C3.81 3.14474 4.25 2.57474 4.87 2.22474L6.6 1.23474C7.73 0.564738 9.22 0.954738 9.9 2.10474L10.02 2.30474C10.61 3.32474 11.42 3.32474 12.01 2.30474L12.12 2.11474C12.8 0.954738 14.29 0.564738 15.43 1.24474L17.15 2.23474C17.4522 2.4079 17.7173 2.63895 17.9302 2.91467C18.143 3.19038 18.2995 3.50536 18.3905 3.84157C18.4815 4.17779 18.5053 4.52865 18.4606 4.87408C18.4159 5.21952 18.3036 5.55276 18.13 5.85474C17.84 6.36474 17.76 6.82474 17.93 7.11474C18.1 7.40474 18.53 7.57474 19.12 7.57474C20.58 7.57474 21.77 8.76474 21.77 10.2247V11.9847C21.77 13.4447 20.58 14.6347 19.12 14.6347C18.53 14.6347 18.1 14.8047 17.93 15.0947C17.76 15.3847 17.83 15.8447 18.13 16.3547C18.48 16.9647 18.58 17.6847 18.39 18.3647C18.3031 18.7031 18.1483 19.0202 17.9352 19.297C17.722 19.5737 17.4549 19.8043 17.15 19.9747L15.42 20.9647C15.04 21.1747 14.63 21.2847 14.21 21.2847V21.2847ZM11 17.5847C11.89 17.5847 12.72 18.1447 13.29 19.1347L13.4 19.3247C13.52 19.5347 13.72 19.6847 13.96 19.7447C14.2 19.8047 14.44 19.7747 14.64 19.6547L16.37 18.6547C16.634 18.5024 16.8273 18.2521 16.9078 17.9581C16.9883 17.6642 16.9496 17.3503 16.8 17.0847C16.23 16.1047 16.16 15.0947 16.6 14.3247C17.04 13.5547 17.95 13.1147 19.09 13.1147C19.73 13.1147 20.24 12.6047 20.24 11.9647V10.2047C20.24 9.57474 19.73 9.05474 19.09 9.05474C17.95 9.05474 17.04 8.61474 16.6 7.84474C16.16 7.07474 16.23 6.06474 16.8 5.08474C16.95 4.82474 16.99 4.51474 16.91 4.21474C16.83 3.91474 16.64 3.67474 16.38 3.51474L14.65 2.52474C14.5456 2.46354 14.4302 2.42353 14.3104 2.40699C14.1905 2.39046 14.0686 2.39773 13.9515 2.42838C13.8345 2.45903 13.7247 2.51247 13.6283 2.58563C13.532 2.65879 13.451 2.75024 13.39 2.85474L13.28 3.04474C12.71 4.03474 11.88 4.59474 10.99 4.59474C10.1 4.59474 9.27 4.03474 8.7 3.04474L8.59 2.84474C8.46573 2.64037 8.26661 2.49258 8.03501 2.43281C7.80342 2.37304 7.55764 2.40603 7.35 2.52474L5.62 3.52474C5.35598 3.67703 5.16272 3.92736 5.0822 4.22133C5.00169 4.5153 5.04043 4.82917 5.19 5.09474C5.76 6.07474 5.83 7.08474 5.39 7.85474C4.95 8.62474 4.04 9.06474 2.9 9.06474C2.26 9.06474 1.75 9.57474 1.75 10.2147V11.9747C1.75 12.6047 2.26 13.1247 2.9 13.1247C4.04 13.1247 4.95 13.5647 5.39 14.3347C5.83 15.1047 5.76 16.1147 5.19 17.0947C5.04 17.3547 5 17.6647 5.08 17.9647C5.16 18.2647 5.35 18.5047 5.61 18.6647L7.34 19.6547C7.55 19.7847 7.8 19.8147 8.03 19.7547C8.27 19.6947 8.47 19.5347 8.6 19.3247L8.71 19.1347C9.28 18.1547 10.11 17.5847 11 17.5847Z" fill="#A5B3CD"/>
</svg>
